<?xml version="1.0" standalone="no"?>
<!DOCTYPE svg PUBLIC "-//W3C//DTD SVG 20010904//EN"
 "http://www.w3.org/TR/2001/REC-SVG-20010904/DTD/svg10.dtd">
<svg version="1.0" xmlns="http://www.w3.org/2000/svg"
 width="785.000000pt" height="785.000000pt" viewBox="0 0 785.000000 785.000000"
 preserveAspectRatio="xMidYMid meet">
<metadata>
Created by potrace 1.11, written by Peter Selinger 2001-2013
</metadata>
<g transform="translate(0.000000,785.000000) scale(0.100000,-0.100000)"
fill="#000000" stroke="none">
<path d="M152 7829 c-55 -16 -115 -85 -130 -147 -17 -76 -18 -7440 0 -7510 23
-93 73 -141 169 -161 84 -18 7469 -11 7522 7 59 20 114 83 127 145 8 38 10
1077 8 3792 l-3 3740 -24 42 c-28 49 -64 77 -117 92 -51 14 -7503 14 -7552 0z
m2193 -1684 c224 -36 393 -121 545 -274 166 -167 239 -345 240 -584 0 -246
-82 -444 -256 -614 -118 -115 -291 -209 -446 -243 l-58 -13 0 -52 c0 -29 3
-80 6 -114 l7 -61 543 0 544 0 0 -205 0 -205 -545 0 -546 0 3 -362 3 -363 28
-53 c16 -30 45 -65 69 -82 87 -63 1 -60 1590 -60 l1448 0 0 175 0 175 230 0
230 0 0 -65 c0 -44 4 -65 12 -65 9 0 9 -3 0 -12 -8 -8 -12 -47 -12 -110 l0
-98 493 -2 492 -3 0 -200 0 -200 -355 -5 -355 -5 85 -66 c109 -85 274 -193
403 -265 159 -88 197 -133 197 -233 0 -63 -13 -97 -53 -140 -60 -63 -142 -85
-218 -59 -75 25 -344 186 -508 302 -115 81 -239 181 -344 278 l-89 81 -41 -49
c-76 -90 -231 -246 -322 -322 -188 -158 -455 -311 -578 -332 -148 -26 -257 53
-257 186 0 93 42 143 185 219 50 26 135 78 190 116 103 70 308 246 318 273 6
15 -119 16 -1308 16 -881 0 -1339 4 -1392 11 -286 39 -513 226 -589 484 -15
51 -18 116 -21 448 l-4 387 -525 0 -524 0 0 205 0 205 525 0 525 0 0 113 0
112 -84 22 c-327 84 -592 344 -660 646 -49 215 -16 440 90 622 61 104 201 243
310 308 97 57 239 110 354 130 111 20 311 21 425 2z m4503 -1822 l-3 -968 -25
-45 c-86 -152 -350 -142 -416 17 -12 26 -14 209 -14 998 l0 965 230 0 230 0
-2 -967z m-2218 682 l0 -265 425 0 425 0 0 265 0 265 235 0 235 0 0 -925 0
-925 -658 0 c-624 0 -663 1 -736 20 -190 48 -324 177 -371 355 -13 51 -15 164
-15 767 l0 708 230 0 230 0 0 -265z"/>
<path d="M2027 5750 c-130 -22 -268 -96 -335 -179 -147 -184 -125 -467 48
-624 112 -101 238 -147 400 -147 164 0 287 47 396 151 69 67 106 129 129 214
43 165 -6 329 -132 445 -132 120 -317 171 -506 140z"/>
<path d="M4632 4133 c3 -215 8 -238 61 -277 28 -20 41 -21 408 -24 l379 -3 0
251 0 250 -426 0 -426 0 4 -197z"/>
</g>
</svg>
