<svg version="1.1" viewBox="0 0 207.93 208.08" xmlns="http://www.w3.org/2000/svg">
 <g transform="translate(7.9481 -219.52)">
  <g stroke-width=".26458"></g>
  <path d="m-2.913 219.94c-5.4894 0.89086-4.7625 7.0768-4.7625 11.261v180.71c0 3.664-1.069 9.4827 1.0263 12.7 2.4739 3.7968 8.8749 2.6458 12.732 2.6458h172.51c5.1797 0 11.35 0.91281 16.404-0.23548 5.6253-1.2779 4.7625-6.8686 4.7625-11.406v-182.03c0-3.4652 1.0361-8.9765-1.3068-11.857-2.6146-3.2144-9.3096-1.901-12.981-1.901h-171.71c-5.3734 0-11.366-0.74428-16.669 0.11641m197.11 5.4398v196.06h-196.32v-196.06h196.32m-151.08 85.99v6.0854h-27.781v10.848h27.781c0 8.7074-2.182 20.725 3.5766 28.046 6.3892 8.1219 16.301 7.1438 25.528 7.1438h59.002c-3.5809 3.5809-7.2911 6.8427-11.642 9.471-2.3823 1.4393-5.8587 2.4942-6.8503 5.3456-2.122 6.1018 4.9178 7.7065 9.2316 5.9656 5.7433-2.3178 10.792-6.3201 15.346-10.419 2.35-2.1154 5.1488-4.6122 6.6146-7.453 8.0653 5.6814 14.975 13.921 24.606 17.318 4.94 1.742 10.221-3.7113 6.7315-8.3177-1.5282-2.0177-4.3423-3.0223-6.467-4.2905-3.7169-2.218-7.3917-4.6821-10.583-7.6197h18.521v-10.848h-25.665v-9.2604h-12.435v9.2604h-72.76c-2.985 0-5.8825 0.11932-8.1775-2.1442-2.2238-2.1934-2.1413-5.0154-2.1413-7.91v-14.288h28.84v-10.848h-28.84c-0.0042-1.5161-0.86016-4.1328 0.0074-5.4761 0.62838-0.97288 2.6644-1.1472 3.6968-1.4912 2.4276-0.80936 4.8191-1.9479 6.8792-3.478 4.871-3.6184 8.2825-8.9194 9.1472-14.955 0.78449-5.4769-0.32358-11.28-3.4211-15.875-2.8728-4.2622-7.2353-7.4787-12.076-9.1691-12.421-4.3378-28.93-0.62045-34.893 12.08-6.1471 13.09 2.9128 31.612 18.225 32.279m4.7625-35.378c11.349-1.3576 21.025 11.845 12.389 21.081-2.7226 2.9117-6.4423 3.9976-10.273 4.4326-10.075 1.1441-19.376-9.9393-13.635-19.239 2.5127-4.0696 6.9988-5.734 11.518-6.2743m113.77 12.36v47.096c0 1.7243-0.27516 3.702 0.52917 5.2906 1.9177 3.7883 8.3172 3.9674 10.662 0.52625 1.9846-2.9123 0.97976-8.2833 0.97976-11.638v-37.571c0-0.88053 0.31088-2.544-0.272-3.28-0.59081-0.74586-2.3339-0.42413-3.1676-0.42413h-8.7312m-58.738 0.52917v29.898c0 5.7835-0.40217 11.31 4.2336 15.586 4.1455 3.824 9.593 3.4642 14.816 3.4642h28.046v-48.948h-12.171v14.023h-22.754v-14.023h-12.171m34.925 38.1h-14.023c-1.9857 0-4.7532 0.48895-6.604-0.32491-3.0258-1.3308-2.1272-6.5545-2.1272-9.2001 0-0.8771-0.35745-2.813 0.42413-3.4322 0.93795-0.74268 3.46-0.27199 4.603-0.27199h12.435c1.1205 0 4.255-0.54134 5.0197 0.42413 0.61621 0.77787 0.27199 2.6104 0.27199 3.5446z" fill="#a67e67"/>
 </g>
</svg>
